<?xml version="1.0" encoding="utf-8"?>
<!-- Generator: Adobe Illustrator 16.0.0, SVG Export Plug-In . SVG Version: 6.00 Build 0)  -->
<!DOCTYPE svg PUBLIC "-//W3C//DTD SVG 1.1//EN" "http://www.w3.org/Graphics/SVG/1.1/DTD/svg11.dtd">
<svg version="1.1" id="Layer_1" xmlns="http://www.w3.org/2000/svg" xmlns:xlink="http://www.w3.org/1999/xlink" x="0px" y="0px"
	 width="800px" height="600px" viewBox="0 0 800 600" enable-background="new 0 0 800 600" xml:space="preserve">
<g>
	<path fill="#FF0000" d="M249.724,238.671c-2.94-10.921-11.551-19.533-22.473-22.473c-19.953-5.46-99.764-5.46-99.764-5.46
		s-79.811,0-99.764,5.25c-10.711,2.94-19.533,11.762-22.473,22.683C0,258.625,0,300,0,300s0,41.586,5.25,61.328
		c2.94,10.922,11.552,19.533,22.473,22.474c20.163,5.461,99.764,5.461,99.764,5.461s79.811,0,99.764-5.251
		c10.921-2.94,19.533-11.552,22.473-22.474c5.251-19.952,5.251-61.328,5.251-61.328S255.185,258.625,249.724,238.671z"/>
	<polygon fill="#FFFFFF" points="102.074,338.226 168.443,300 102.074,261.775 	"/>
</g>
<g>
	<g>
		<path fill="#282828" d="M370.281,373.3c-5.041-3.36-8.611-8.611-10.711-15.962c-2.1-7.141-3.15-16.803-3.15-28.563v-16.173
			c0-11.972,1.26-21.633,3.57-28.984c2.521-7.351,6.301-12.602,11.342-15.962c5.25-3.361,11.972-5.041,20.373-5.041
			c8.191,0,14.913,1.68,19.953,5.041c5.041,3.36,8.611,8.821,10.922,15.962s3.57,16.802,3.57,28.984v16.173
			c0,11.972-1.05,21.423-3.36,28.773c-2.311,7.141-5.881,12.602-10.922,15.962c-5.04,3.36-11.972,5.041-20.583,5.041
			C382.462,378.341,375.322,376.66,370.281,373.3z M398.635,355.657c1.471-3.57,2.101-9.661,2.101-17.852V302.94
			c0-7.981-0.63-13.862-2.101-17.643c-1.47-3.78-3.78-5.46-7.351-5.46c-3.36,0-5.881,1.89-7.141,5.46
			c-1.47,3.781-2.101,9.662-2.101,17.643v34.865c0,8.19,0.63,14.281,2.101,17.852c1.26,3.571,3.78,5.461,7.351,5.461
			C394.854,361.118,397.165,359.438,398.635,355.657z"/>
		<path fill="#282828" d="M308.953,326.884l-28.564-103.544h24.993l10.082,46.836c2.521,11.552,4.411,21.423,5.671,29.614h0.63
			c0.84-5.881,2.73-15.542,5.671-29.404l10.501-47.046h24.993l-28.984,103.544v49.566h-24.783v-49.566H308.953z"/>
		<path fill="#282828" d="M507.43,264.715V376.66h-19.742l-2.101-13.651h-0.63c-5.251,10.291-13.442,15.542-24.153,15.542
			c-7.352,0-12.813-2.521-16.383-7.351c-3.57-4.831-5.251-12.393-5.251-22.894v-83.591h25.204v82.122c0,5.04,0.63,8.61,1.68,10.711
			c1.051,2.101,2.94,3.15,5.461,3.15c2.101,0,4.201-0.63,6.301-2.101c2.101-1.26,3.571-2.94,4.411-5.04v-88.842H507.43z"/>
		<path fill="#282828" d="M575.899,243.712h-24.993V376.45h-24.574V243.712h-24.993v-20.373h74.561V243.712z"/>
		<path fill="#282828" d="M792.82,282.567c-1.47-7.141-3.99-12.182-7.351-15.332s-8.191-4.831-14.072-4.831
			c-4.62,0-9.031,1.26-13.021,3.991c-3.99,2.52-7.141,6.091-9.241,10.292h-0.21v-59.018h-24.363V376.45h20.793l2.521-10.501h0.63
			c1.89,3.78,4.83,6.721,8.821,9.031c3.99,2.101,8.19,3.36,13.021,3.36c8.611,0,14.702-3.99,18.692-11.762
			c3.991-7.771,6.091-20.163,6.091-36.755v-17.643C794.921,299.37,794.291,289.499,792.82,282.567z M769.718,328.144
			c0,8.191-0.42,14.492-1.05,19.113c-0.631,4.62-1.891,7.98-3.361,9.871c-1.68,1.891-3.78,2.94-6.301,2.94
			c-2.1,0-3.99-0.42-5.671-1.471c-1.68-1.05-3.15-2.52-4.2-4.41v-63.429c0.84-2.94,2.311-5.461,4.41-7.561
			c2.101-1.89,4.411-2.94,6.722-2.94c2.521,0,4.62,1.05,5.881,2.94c1.47,2.1,2.31,5.46,2.94,10.082
			c0.63,4.831,0.84,11.551,0.84,20.162v14.702H769.718z"/>
	</g>
</g>
<path fill="#282828" d="M577.965,373.3c-5.041-3.36-8.611-8.611-10.712-15.962c-2.101-7.141-3.15-16.803-3.15-28.563v-16.173
	c0-11.972,1.261-21.633,3.57-28.984c2.521-7.351,6.302-12.601,11.342-15.961c5.251-3.361,11.972-5.041,20.372-5.041
	c8.191,0,14.913,1.68,19.953,5.041c5.041,3.36,8.611,8.821,10.922,15.961c2.311,7.142,3.57,16.803,3.57,28.984v16.173
	c0,11.972-1.05,21.423-3.36,28.773c-2.311,7.141-5.881,12.602-10.922,15.962c-5.04,3.36-11.972,5.041-20.583,5.041
	C590.146,378.341,583.006,376.66,577.965,373.3z M606.318,355.657c1.471-3.57,2.101-9.661,2.101-17.852V302.94
	c0-7.981-0.63-13.862-2.101-17.643c-1.47-3.78-3.78-5.46-7.352-5.46c-3.359,0-5.881,1.89-7.141,5.46
	c-1.47,3.78-2.1,9.661-2.1,17.643v34.865c0,8.19,0.63,14.281,2.1,17.852c1.26,3.571,3.781,5.461,7.352,5.461
	C602.538,361.118,604.849,359.438,606.318,355.657z"/>
<path fill="#282828" d="M657.527,374.351c-5.041-3.36-8.611-8.611-10.712-15.962c-2.101-7.141-3.15-16.803-3.15-28.563v-16.173
	c0-11.972,1.261-21.633,3.57-28.984c2.521-7.351,6.302-12.601,11.342-15.961c5.251-3.361,11.972-5.041,20.372-5.041
	c8.191,0,14.913,1.68,19.953,5.041c5.041,3.36,8.611,8.821,10.922,15.961c2.311,7.142,3.57,16.803,3.57,28.984v16.173
	c0,11.972-1.05,21.423-3.36,28.773c-2.311,7.141-5.881,12.602-10.922,15.962c-5.04,3.36-11.972,5.041-20.583,5.041
	C669.709,379.392,662.568,377.711,657.527,374.351z M685.881,356.708c1.471-3.57,2.101-9.661,2.101-17.852v-34.865
	c0-7.981-0.63-13.862-2.101-17.643c-1.47-3.78-3.78-5.46-7.352-5.46c-3.359,0-5.881,1.89-7.141,5.46
	c-1.47,3.78-2.1,9.661-2.1,17.643v34.865c0,8.19,0.63,14.281,2.1,17.852c1.26,3.571,3.781,5.461,7.352,5.461
	C682.101,362.169,684.411,360.489,685.881,356.708z"/>
</svg>
